<svg width="200" height="223" viewBox="0 0 200 223" fill="none" xmlns="http://www.w3.org/2000/svg">
<g filter="url(#filter0_d_1004:299)">
<path fill-rule="evenodd" clip-rule="evenodd" d="M59.0141 70.9718H27.7465C20.5352 70.9718 11.4085 87.0282 10 96.3239V110.408V124.493C11.4085 133.789 20.5352 149.845 27.7465 149.845H59.0141V194.352C60.4225 201.113 74.6197 211.817 84.0845 211.817H99.5775H100.423H115.915C125.38 211.817 139.577 201.113 140.986 194.352V149.845H172.254C179.465 149.845 188.592 133.789 190 124.493V110.408V96.3239C188.592 87.0282 179.465 70.9718 172.254 70.9718H140.986V26.4648C139.577 19.7042 125.38 9 115.915 9H100.423H99.5775H84.0845C74.6197 9 60.4225 19.7042 59.0141 26.4648V70.9718Z" fill="white"/>
</g>
<path fill-rule="evenodd" clip-rule="evenodd" d="M91.1931 196.587C89.9507 196.561 88.7134 196.42 87.4969 196.165C86.0662 195.891 84.6611 195.496 83.2967 194.984C82.067 194.542 80.9178 193.901 79.8946 193.086C78.9705 192.327 78.5085 191.469 78.5085 190.513V177.185L64.6479 170.69V193.634C64.6479 194.646 65.0259 195.687 65.7819 196.755C66.6119 197.903 67.586 198.937 68.6801 199.834C69.9257 200.866 71.2611 201.784 72.6703 202.576C74.0973 203.391 75.5698 204.123 77.0805 204.769C78.4332 205.351 79.8222 205.844 81.2386 206.245C82.2885 206.567 83.3756 206.752 84.4728 206.793H114.042C115.139 206.752 116.226 206.567 117.276 206.245C118.693 205.844 120.082 205.351 121.434 204.769C122.945 204.123 124.418 203.391 125.845 202.576C127.254 201.784 128.589 200.866 129.835 199.834C130.921 198.945 131.894 197.925 132.733 196.797C133.489 195.757 133.867 194.703 133.867 193.634V170.69L120.007 177.185V190.513C120.007 191.469 119.545 192.313 118.621 193.044C117.584 193.838 116.438 194.477 115.218 194.942C113.859 195.48 112.453 195.89 111.018 196.165C109.802 196.42 108.564 196.561 107.322 196.587H91.1933H91.1931Z" fill="#F35061"/>
<path fill-rule="evenodd" clip-rule="evenodd" d="M107.885 24.2772C109.128 24.3028 110.365 24.444 111.582 24.6989C113.012 24.973 114.417 25.368 115.782 25.8799C117.011 26.3216 118.161 26.9628 119.184 27.7778C120.108 28.537 120.57 29.3946 120.57 30.3506V43.6784L134.431 50.1736V27.2295C134.431 26.2173 134.053 25.1769 133.297 24.1084C132.467 22.9611 131.493 21.9262 130.398 21.0296C129.153 19.9975 127.817 19.08 126.408 18.2881C124.981 17.4729 123.509 16.7406 121.998 16.0949C120.645 15.5129 119.256 15.0198 117.84 14.6187C116.79 14.2962 115.703 14.1119 114.606 14.0704H85.0364C83.9392 14.1119 82.852 14.2962 81.802 14.6187C80.3856 15.0198 78.9966 15.5129 77.6438 16.0949C76.1332 16.7406 74.6607 17.4729 73.2336 18.2881C71.8245 19.08 70.489 19.9975 69.2435 21.0296C68.1573 21.9189 67.184 22.9388 66.3453 24.0663C65.5893 25.1066 65.2113 26.161 65.2113 27.2295V50.1736L79.0719 43.6784V30.3506C79.0719 29.3946 79.5339 28.551 80.458 27.82C81.4947 27.0255 82.6408 26.3862 83.8603 25.922C85.2193 25.3835 86.6255 24.974 88.0605 24.6989C89.277 24.444 90.5143 24.3028 91.7567 24.2772H107.885V24.2772Z" fill="#F35061"/>
<path fill-rule="evenodd" clip-rule="evenodd" d="M174.845 118.78C174.797 120.027 174.635 121.267 174.359 122.484C174.062 123.915 173.643 125.319 173.11 126.68C172.648 127.907 171.99 129.049 171.16 130.062C170.388 130.977 169.526 131.425 168.573 131.408L155.303 131.174L148.592 144.975L171.436 145.379C172.444 145.397 173.486 145.036 174.563 144.295C175.72 143.482 176.767 142.522 177.679 141.44C178.729 140.207 179.666 138.883 180.479 137.482C181.316 136.064 182.071 134.598 182.741 133.093C183.344 131.745 183.86 130.359 184.284 128.944C184.624 127.895 184.826 126.807 184.887 125.706L185.407 96.0189C185.385 94.9165 185.22 93.8217 184.917 92.7619C184.543 91.3327 184.076 89.9295 183.521 88.5611C182.904 87.033 182.201 85.5417 181.415 84.0946C180.651 82.6662 179.76 81.3095 178.755 80.041C177.888 78.9349 176.89 77.9398 175.782 77.0778C174.759 76.3004 173.716 75.902 172.652 75.8828L149.808 75.4789L156.031 89.5094L169.302 89.7437C170.253 89.7602 171.085 90.239 171.797 91.1798C172.57 92.2346 173.186 93.3964 173.627 94.6289C174.139 96.0028 174.522 97.4218 174.77 98.8674C175.003 100.093 175.121 101.338 175.125 102.586L174.845 118.78Z" fill="#F35061"/>
<path fill-rule="evenodd" clip-rule="evenodd" d="M25.0705 102.079C25.118 100.832 25.2804 99.5919 25.5556 98.375C25.8537 96.9435 26.2718 95.5398 26.8054 94.179C27.2669 92.952 27.9256 91.8093 28.7553 90.7964C29.5273 89.8821 30.3894 89.4334 31.3414 89.4503L44.6119 89.6846L51.3231 75.8835L28.4787 75.4795C27.471 75.4617 26.4287 75.8229 25.3519 76.5632C24.1948 77.3762 23.1472 78.336 22.2352 79.4188C21.1855 80.6511 20.2484 81.9757 19.435 83.3766C18.5983 84.795 17.8432 86.2605 17.1737 87.7658C16.5703 89.1137 16.0548 90.4996 15.6306 91.9148C15.291 92.9631 15.0884 94.0513 15.0276 95.1521L14.507 124.84C14.5293 125.942 14.6941 127.037 14.9971 128.097C15.3713 129.526 15.8378 130.929 16.3936 132.297C17.0099 133.826 17.7131 135.317 18.4998 136.764C19.2637 138.192 20.154 139.549 21.1599 140.818C22.0264 141.924 23.0247 142.919 24.1325 143.781C25.1552 144.558 26.1984 144.956 27.2623 144.976L50.1079 145.38L43.8846 131.349L30.6138 131.115C29.6621 131.098 28.8304 130.62 28.1187 129.679C27.3458 128.624 26.7294 127.462 26.2888 126.23C25.7766 124.856 25.3938 123.437 25.1454 121.991C24.913 120.765 24.7942 119.52 24.7905 118.273L25.0705 102.079Z" fill="#F35061"/>
<g filter="url(#filter1_d_1004:299)">
<path fill-rule="evenodd" clip-rule="evenodd" d="M99.8608 160.549H125.429L108.383 148.649V111.307C143.421 111.307 134.898 71.5352 134.898 71.5352H99.8607H98.9138H63.8763C63.8763 71.5352 55.3538 111.307 90.3912 111.307V148.649L73.3459 160.549H98.9138H99.8608Z" fill="#FFD461"/>
<path d="M125.429 160.549L126.287 159.319L130.197 162.049H125.429V160.549ZM108.383 148.649L107.525 149.879L106.883 149.431V148.649H108.383ZM108.383 111.307H106.883V109.807H108.383V111.307ZM134.898 71.5352V70.0352H136.111L136.365 71.2209L134.898 71.5352ZM63.8763 71.5352L62.4096 71.2209L62.6637 70.0352H63.8763V71.5352ZM90.3912 111.307V109.807H91.8912V111.307H90.3912ZM90.3912 148.649H91.8912V149.431L91.2498 149.879L90.3912 148.649ZM73.3459 160.549V162.049H68.5771L72.4873 159.319L73.3459 160.549ZM125.429 162.049H99.8608V159.049H125.429V162.049ZM109.242 147.419L126.287 159.319L124.57 161.779L107.525 149.879L109.242 147.419ZM109.883 111.307V148.649H106.883V111.307H109.883ZM134.898 71.5352C136.365 71.2209 136.365 71.2217 136.365 71.2226C136.365 71.2231 136.366 71.2241 136.366 71.2252C136.366 71.2272 136.367 71.2298 136.367 71.233C136.369 71.2395 136.371 71.2483 136.373 71.2596C136.378 71.282 136.384 71.3139 136.392 71.355C136.409 71.4372 136.432 71.556 136.46 71.7091C136.517 72.0152 136.594 72.4586 136.679 73.0197C136.849 74.1412 137.05 75.7365 137.179 77.6487C137.436 81.4613 137.411 86.5899 136.243 91.7523C135.075 96.9153 132.742 102.206 128.313 106.206C123.861 110.228 117.443 112.807 108.383 112.807V109.807C116.842 109.807 122.498 107.416 126.302 103.98C130.129 100.523 132.236 95.8704 133.317 91.0904C134.398 86.3097 134.432 81.4953 134.186 77.8506C134.063 76.0341 133.872 74.5222 133.713 73.4687C133.633 72.9422 133.561 72.5311 133.51 72.2546C133.485 72.1164 133.464 72.0119 133.451 71.9436C133.444 71.9094 133.439 71.8843 133.435 71.8685C133.434 71.8606 133.433 71.8551 133.432 71.8519C133.432 71.8503 133.431 71.8493 133.431 71.8489C133.431 71.8487 133.431 71.8488 133.431 71.8487C133.431 71.849 133.432 71.8495 134.898 71.5352ZM99.8607 70.0352H134.898V73.0352H99.8607V70.0352ZM99.8607 73.0352H98.9138V70.0352H99.8607V73.0352ZM98.9138 73.0352H63.8763V70.0352H98.9138V73.0352ZM63.8763 71.5352C65.343 71.8495 65.3431 71.849 65.3432 71.8487C65.3432 71.8488 65.3432 71.8487 65.3432 71.8489C65.3431 71.8493 65.3429 71.8503 65.3425 71.8519C65.3419 71.8551 65.3407 71.8606 65.3391 71.8685C65.3358 71.8843 65.3306 71.9094 65.3238 71.9436C65.3101 72.0119 65.2897 72.1164 65.2642 72.2546C65.2131 72.5311 65.1414 72.9422 65.0617 73.4687C64.9022 74.5222 64.7113 76.0341 64.5887 77.8506C64.3429 81.4953 64.3764 86.3097 65.4578 91.0904C66.539 95.8704 68.6452 100.523 72.4722 103.98C76.2761 107.416 81.9321 109.807 90.3912 109.807V112.807C81.3315 112.807 74.9138 110.228 70.4614 106.206C66.0321 102.206 63.6995 96.9153 62.5317 91.7523C61.364 86.5899 61.3384 81.4613 61.5955 77.6487C61.7245 75.7365 61.9257 74.1412 62.0955 73.0197C62.1804 72.4586 62.2576 72.0152 62.3142 71.7091C62.3425 71.556 62.3657 71.4372 62.3821 71.355C62.3903 71.3139 62.3969 71.282 62.4015 71.2596C62.4039 71.2483 62.4057 71.2395 62.4071 71.233C62.4077 71.2298 62.4083 71.2272 62.4087 71.2252C62.4089 71.2241 62.4092 71.2231 62.4093 71.2226C62.4095 71.2217 62.4096 71.2209 63.8763 71.5352ZM91.8912 111.307V148.649H88.8912V111.307H91.8912ZM91.2498 149.879L74.2046 161.779L72.4873 159.319L89.5325 147.419L91.2498 149.879ZM73.3459 159.049H98.9138V162.049H73.3459V159.049ZM98.9138 159.049H99.8608V162.049H98.9138V159.049Z" fill="white"/>
</g>
<g filter="url(#filter2_d_1004:299)">
<path d="M83.517 144.693V148.921C83.517 152.093 112.611 155 112.611 155H120.612C133.219 144.693 127.4 129.893 119.642 129.893H78.2528C76.5556 129.893 76.5556 125.929 78.2528 125.929H90.0192V114.829H76.5556C71.9492 114.829 57.5752 129.893 76.5556 140.464H116.075C117.772 140.464 118.742 143.9 116.075 144.693H89.5346H83.517Z" fill="#006046"/>
<path d="M116.559 110.864H86.2535C60.5542 105.579 70.0097 81 86.2535 81H101.77V83.6429C101.77 90.5143 91.7278 90.0385 91.9577 90.75C92.6846 93 95.709 96.0643 95.709 96.0643H86.2535C84.0019 96.0643 84.0019 100.029 86.2535 100.029H119.642C128.612 100.029 137.583 117.471 119.642 125.929H107.465V114.829H116.559C118.499 114.829 118.499 110.864 116.559 110.864Z" fill="#006046"/>
<path d="M83.517 144.693V148.921C83.517 152.093 112.611 155 112.611 155H120.612C133.219 144.693 127.4 129.893 119.642 129.893H78.2528C76.5556 129.893 76.5556 125.929 78.2528 125.929H90.0192V114.829H76.5556C71.9492 114.829 57.5752 129.893 76.5556 140.464H116.075C117.772 140.464 118.742 143.9 116.075 144.693H89.5346H83.517Z" stroke="white" stroke-width="2"/>
<path d="M116.559 110.864H86.2535C60.5542 105.579 70.0097 81 86.2535 81H101.77V83.6429C101.77 90.5143 91.7278 90.0385 91.9577 90.75C92.6846 93 95.709 96.0643 95.709 96.0643H86.2535C84.0019 96.0643 84.0019 100.029 86.2535 100.029H119.642C128.612 100.029 137.583 117.471 119.642 125.929H107.465V114.829H116.559C118.499 114.829 118.499 110.864 116.559 110.864Z" stroke="white" stroke-width="2"/>
</g>
<path fill-rule="evenodd" clip-rule="evenodd" d="M93.861 85.6023C93.861 85.6023 93.2016 85.6023 92.762 85.3511C92.3224 85.0999 92.1026 84.5975 92.1026 84.5975C92.1026 84.5975 92.4458 84.0504 92.762 83.8439C93.142 83.5957 93.861 83.5927 93.861 83.5927L93.861 85.6023ZM93.861 85.6023L93.861 83.5927C93.861 83.5927 94.58 83.5957 94.96 83.8439C95.2762 84.0504 95.6194 84.5975 95.6194 84.5975C95.6194 84.5975 95.3996 85.0999 94.96 85.3511C94.5204 85.6023 93.861 85.6023 93.861 85.6023Z" fill="white"/>
<defs>
<filter id="filter0_d_1004:299" x="0" y="0" width="200" height="222.817" filterUnits="userSpaceOnUse" color-interpolation-filters="sRGB">
<feFlood flood-opacity="0" result="BackgroundImageFix"/>
<feColorMatrix in="SourceAlpha" type="matrix" values="0 0 0 0 0 0 0 0 0 0 0 0 0 0 0 0 0 0 127 0" result="hardAlpha"/>
<feOffset dy="1"/>
<feGaussianBlur stdDeviation="5"/>
<feComposite in2="hardAlpha" operator="out"/>
<feColorMatrix type="matrix" values="0 0 0 0 0 0 0 0 0 0 0 0 0 0 0 0 0 0 0.2 0"/>
<feBlend mode="normal" in2="BackgroundImageFix" result="effect1_dropShadow_1004:299"/>
<feBlend mode="normal" in="SourceGraphic" in2="effect1_dropShadow_1004:299" result="shape"/>
</filter>
<filter id="filter1_d_1004:299" x="41.4635" y="51.0352" width="115.848" height="132.014" filterUnits="userSpaceOnUse" color-interpolation-filters="sRGB">
<feFlood flood-opacity="0" result="BackgroundImageFix"/>
<feColorMatrix in="SourceAlpha" type="matrix" values="0 0 0 0 0 0 0 0 0 0 0 0 0 0 0 0 0 0 127 0" result="hardAlpha"/>
<feOffset dy="1"/>
<feGaussianBlur stdDeviation="10"/>
<feComposite in2="hardAlpha" operator="out"/>
<feColorMatrix type="matrix" values="0 0 0 0 0 0 0 0 0 0 0 0 0 0 0 0 0 0 0.1 0"/>
<feBlend mode="normal" in2="BackgroundImageFix" result="effect1_dropShadow_1004:299"/>
<feBlend mode="normal" in="SourceGraphic" in2="effect1_dropShadow_1004:299" result="shape"/>
</filter>
<filter id="filter2_d_1004:299" x="46" y="61" width="105" height="116" filterUnits="userSpaceOnUse" color-interpolation-filters="sRGB">
<feFlood flood-opacity="0" result="BackgroundImageFix"/>
<feColorMatrix in="SourceAlpha" type="matrix" values="0 0 0 0 0 0 0 0 0 0 0 0 0 0 0 0 0 0 127 0" result="hardAlpha"/>
<feOffset dy="1"/>
<feGaussianBlur stdDeviation="10"/>
<feComposite in2="hardAlpha" operator="out"/>
<feColorMatrix type="matrix" values="0 0 0 0 0 0 0 0 0 0 0 0 0 0 0 0 0 0 0.1 0"/>
<feBlend mode="normal" in2="BackgroundImageFix" result="effect1_dropShadow_1004:299"/>
<feBlend mode="normal" in="SourceGraphic" in2="effect1_dropShadow_1004:299" result="shape"/>
</filter>
</defs>
</svg>
